<?xml version="1.0" encoding="UTF-8" standalone="no"?>
<!DOCTYPE svg PUBLIC "-//W3C//DTD SVG 1.1//EN" "http://www.w3.org/Graphics/SVG/1.1/DTD/svg11.dtd">
<svg version="1.1" xmlns="http://www.w3.org/2000/svg" xmlns:xlink="http://www.w3.org/1999/xlink" preserveAspectRatio="xMidYMid meet" viewBox="205.04081632653055 205.04081632653055 229.9183673469388 229.91836734693885" width="250" height="250"><defs><path d="M235.31 381.22L235.31 258.78" id="gdNH1UEh4"></path><path d="M381.22 235.31L258.78 235.31" id="d17yrrlYo"></path><path d="M404.69 381.22L404.69 258.78" id="c40C9ntEaZ"></path><path d="M413.9 209.54C423.05 209.54 430.46 216.95 430.46 226.1C430.46 233.09 430.46 237.52 430.46 244.51C430.46 253.66 423.05 261.07 413.9 261.07C406.91 261.07 402.48 261.07 395.49 261.07C386.34 261.07 378.93 253.66 378.93 244.51C378.93 237.52 378.93 233.09 378.93 226.1C378.93 216.95 386.34 209.54 395.49 209.54C402.48 209.54 406.91 209.54 413.9 209.54Z" id="fjjFm8d0Z"></path><path d="M244.51 209.54C253.66 209.54 261.07 216.95 261.07 226.1C261.07 233.09 261.07 237.52 261.07 244.51C261.07 253.66 253.66 261.07 244.51 261.07C237.52 261.07 233.09 261.07 226.1 261.07C216.95 261.07 209.54 253.66 209.54 244.51C209.54 237.52 209.54 233.09 209.54 226.1C209.54 216.95 216.95 209.54 226.1 209.54C233.09 209.54 237.52 209.54 244.51 209.54Z" id="f5JgADMWz"></path><path d="M381.22 401.22L258.78 401.22" id="d4UYticsYW"></path><path d="M413.9 378.93C423.05 378.93 430.46 386.34 430.46 395.49C430.46 402.48 430.46 406.91 430.46 413.9C430.46 423.05 423.05 430.46 413.9 430.46C406.91 430.46 402.48 430.46 395.49 430.46C386.34 430.46 378.93 423.05 378.93 413.9C378.93 406.91 378.93 402.48 378.93 395.49C378.93 386.34 386.34 378.93 395.49 378.93C402.48 378.93 406.91 378.93 413.9 378.93Z" id="ebLtkLiu"></path><path d="M244.51 378.93C253.66 378.93 261.07 386.34 261.07 395.49C261.07 402.48 261.07 406.91 261.07 413.9C261.07 423.05 253.66 430.46 244.51 430.46C237.52 430.46 233.09 430.46 226.1 430.46C216.95 430.46 209.54 423.05 209.54 413.9C209.54 406.91 209.54 402.48 209.54 395.49C209.54 386.34 216.95 378.93 226.1 378.93C233.09 378.93 237.52 378.93 244.51 378.93Z" id="bg4LlS7E2"></path><path d="" id="b1uDluMVkH"></path><path d="M258.78 381.22L381.22 258.78" id="a4g6dKfuZQ"></path><path d="M209.54 378.93L261.07 378.93L261.07 430.46L209.54 430.46L209.54 378.93Z" id="h5VOpF5cDa"></path></defs><g><g><g><use xlink:href="#gdNH1UEh4" opacity="1" fill-opacity="0" stroke="#386e9d" stroke-width="6" stroke-opacity="1"></use></g></g><g><g><use xlink:href="#d17yrrlYo" opacity="1" fill-opacity="0" stroke="#376fa0" stroke-width="6" stroke-opacity="1"></use></g></g><g><g><use xlink:href="#c40C9ntEaZ" opacity="1" fill-opacity="0" stroke="#ffcf3f" stroke-width="6" stroke-opacity="1"></use></g></g><g><g><use xlink:href="#fjjFm8d0Z" opacity="1" fill-opacity="0" stroke="#9b9a9a" stroke-width="9" stroke-opacity="1"></use></g></g><g><g><use xlink:href="#f5JgADMWz" opacity="1" fill-opacity="0" stroke="#376fa0" stroke-width="9" stroke-opacity="1"></use></g></g><g><g><use xlink:href="#d4UYticsYW" opacity="1" fill-opacity="0" stroke="#ffcf3f" stroke-width="6" stroke-opacity="1"></use></g></g><g><g><use xlink:href="#ebLtkLiu" opacity="1" fill-opacity="0" stroke="#ffcf3f" stroke-width="9" stroke-opacity="1"></use></g></g><g><g><use xlink:href="#bg4LlS7E2" opacity="1" fill-opacity="0" stroke="#9b9a9a" stroke-width="9" stroke-opacity="1"></use></g></g><g><g><use xlink:href="#b1uDluMVkH" opacity="1" fill-opacity="0" stroke="#9b9a9a" stroke-width="9" stroke-opacity="1"></use></g></g><g><g><filter id="shadow13427989" x="234.78" y="234.78" width="173.45" height="172.45" filterUnits="userSpaceOnUse" primitiveUnits="userSpaceOnUse"><feFlood></feFlood><feComposite in2="SourceAlpha" operator="in"></feComposite><feGaussianBlur stdDeviation="2.65"></feGaussianBlur><feOffset dx="3" dy="2" result="afterOffset"></feOffset><feFlood flood-color="#000000" flood-opacity="0.5"></feFlood><feComposite in2="afterOffset" operator="in"></feComposite><feMorphology operator="dilate" radius="2"></feMorphology><feComposite in2="SourceAlpha" operator="out"></feComposite></filter><path d="M258.78 381.22L381.22 258.78" id="a6oa6CVhUz" fill="none" stroke="white" filter="url(#shadow13427989)"></path></g><g><use xlink:href="#a4g6dKfuZQ" opacity="0.92" fill-opacity="0" stroke="#9b9a9a" stroke-width="6" stroke-opacity="1"></use></g></g><g></g></g></svg>
